<svg id="Layer_1" data-name="Layer 1" xmlns="http://www.w3.org/2000/svg" viewBox="0 0 201.32 66"><defs><style>.cls-1{fill:#005caa;}</style></defs><title>Payment Gateway</title><path class="cls-1" d="M120.22,21.88a11.32,11.32,0,0,0,0-4c-.73-4.08-3.87-7.4-9.79-7.5l-8.13-.17L88.21,10,81.63,22.77l2.94-.23-7.94,35H99.35a14.75,14.75,0,0,0,2.94-.3c10.68-2.12,21.16-15,10.65-25.26A14.13,14.13,0,0,0,120.22,21.88ZM102.3,45.68a3.17,3.17,0,0,1-1.82.63H92.31L95,35.79h6.12a6,6,0,0,1,1.16.1C107.16,36.82,105.44,43.59,102.3,45.68Zm2-17h-7.7l2.28-9.36h6.78C109.27,19.36,108.81,28.72,104.31,28.72Z"/><path class="cls-1" d="M201,58l-4.1-47.34H175.14l-6.35,11.89h2.28L159.93,46.68l-5,10.82h15l3.17-8.7h11.84V58Zm-20.2-18.56h-4.1l4.1-8.23,4.1-8.23V39.44Z"/><path class="cls-1" d="M134,34.86c.83-7.47,15.37-13.91,25.23-6.84l.66-1.59,5-11.89-5-2.79L154.7,8.83l-.89,2.72c-6.05.46-22-5-31.81,19.45a28.78,28.78,0,0,0-1.79,7,23.19,23.19,0,0,0,0,5.25c1.16,9.26,8.89,17.2,28.83,15l5.19-13.94C139.13,49,133.21,42.66,134,34.86Z"/><path class="cls-1" d="M58.56,6l-.06-.08-.09,0A65.87,65.87,0,0,0,32.11,0a63.36,63.36,0,0,0-26,5.91L6,6l-.06.12C5.89,6.19,0,16.94,0,32.89a61.75,61.75,0,0,0,5.94,27L6,60l.12.06A65.87,65.87,0,0,0,32.43,66a63.35,63.35,0,0,0,26-5.91l.06,0,.05-.05c.28-.29,6.75-7.23,6.75-28.17C65.27,14.77,58.84,6.38,58.56,6Zm-.62,53.31a62.48,62.48,0,0,1-25.51,5.77A65.07,65.07,0,0,1,6.65,59.37,61.36,61.36,0,0,1,.88,32.89,59.74,59.74,0,0,1,6.66,6.63,62.6,62.6,0,0,1,32.11.88,65,65,0,0,1,57.93,6.65a27.9,27.9,0,0,1,3.19,6.16,52.48,52.48,0,0,1,3.28,19C64.39,51.45,58.52,58.68,57.94,59.34Z"/><path class="cls-1" d="M32.64,5.94s-10.57-.2-10.57,9.62,9.74,9.13,9.74,21V50h1.65V36.6c0-11.91,9.74-11.23,9.74-21S32.64,5.94,32.64,5.94Z"/><path class="cls-1" d="M17.85,38.2c5.25,1.38,12,4.51,12,11.79h.78V38.07c0-5.34-4.82-15.82-11.72-15.82s-8.69,6.12-8.69,8.69C10.27,34.41,12.44,36.77,17.85,38.2Z"/><path class="cls-1" d="M20.88,46.53c4.55-1,6.67,1.37,7.06,3.46h.72c.39-4.16-3.52-9.25-10.42-10.36S11,36.2,11,36.2C7.63,42.36,10.43,48.84,20.88,46.53Z"/><path class="cls-1" d="M47.07,38.2c5.41-1.42,7.58-3.79,7.58-7.26,0-2.57-1.79-8.69-8.69-8.69S34.24,32.73,34.24,38.07V50H35C35,42.7,41.81,39.58,47.07,38.2Z"/><path class="cls-1" d="M46.68,39.63c-6.9,1.11-10.81,6.2-10.42,10.36H37c.39-2.09,2.51-4.46,7.06-3.46C54.49,48.84,57.29,42.36,54,36.2,54,36.2,53.58,38.52,46.68,39.63Z"/><path class="cls-1" d="M17.37,57.18l.95.34-.34,1a.9.9,0,0,1-.38.07,1.87,1.87,0,0,1-.58-.13,1,1,0,0,1-.63-.62,1.49,1.49,0,0,1,0-1l.37-1a1.49,1.49,0,0,1,.6-.8.94.94,0,0,1,.86-.09,1,1,0,0,1,.58.45.86.86,0,0,1,0,.69l.93.33v0A1.49,1.49,0,0,0,19.73,55a2.14,2.14,0,0,0-1.23-.92,2,2,0,0,0-1.62.06,2.12,2.12,0,0,0-1.07,1.26l-.37,1a2.08,2.08,0,0,0,0,1.66,2.11,2.11,0,0,0,1.26,1.09,2.87,2.87,0,0,0,1.26.2,2,2,0,0,0,.87-.28l.68-1.9-1.94-.69Z"/><path class="cls-1" d="M22.48,55.19l-1.78-.33-1,5.14,1,.19.38-2.06.82.15a.81.81,0,0,1,.56.32.83.83,0,0,1,.1.64l-.07.36a3.35,3.35,0,0,0-.05.51.58.58,0,0,0,.11.41l1.06.2v-.07a.63.63,0,0,1-.14-.39,1.9,1.9,0,0,1,0-.46l.07-.38a1.45,1.45,0,0,0-.06-.81,1.13,1.13,0,0,0-.57-.57,1.49,1.49,0,0,0,.7-.35,1.15,1.15,0,0,0,.34-.64,1.38,1.38,0,0,0-.29-1.21A2.17,2.17,0,0,0,22.48,55.19ZM23,56.91a.69.69,0,0,1-.31.5,1,1,0,0,1-.68.06l-.73-.14.28-1.5.75.14a.88.88,0,0,1,.59.32A.76.76,0,0,1,23,56.91Z"/><path class="cls-1" d="M27.66,59.27a1.07,1.07,0,0,1-.35.78,1.05,1.05,0,0,1-.79.21,1,1,0,0,1-.73-.34,1.08,1.08,0,0,1-.21-.82l.28-3.41-1-.09L24.53,59A1.73,1.73,0,0,0,25,60.43a2.23,2.23,0,0,0,1.46.62A2.26,2.26,0,0,0,28,60.68a1.72,1.72,0,0,0,.7-1.33L29,55.94l-1-.09Z"/><path class="cls-1" d="M31.49,56l-2,0,0,5.23h1l0-1.9h1a2.07,2.07,0,0,0,1.42-.44,1.67,1.67,0,0,0,0-2.42A2.06,2.06,0,0,0,31.49,56Zm.65,2.29a.87.87,0,0,1-.67.23h-1V56.76h1a.86.86,0,0,1,.66.25.89.89,0,0,1,.22.63A.85.85,0,0,1,32.13,58.25Z"/><path class="cls-1" d="M40.79,58.35A1.13,1.13,0,0,0,40,58a1.11,1.11,0,0,0,.62-1.14,1.22,1.22,0,0,0-.63-1,2.49,2.49,0,0,0-1.47-.21l-1.7.18.55,5.2,2-.21a2.24,2.24,0,0,0,1.36-.53,1.35,1.35,0,0,0,.37-1.18A1.27,1.27,0,0,0,40.79,58.35ZM38,56.52l.66-.07a1.12,1.12,0,0,1,.7.1.63.63,0,0,1,.28.51.59.59,0,0,1-.17.52,1.05,1.05,0,0,1-.63.24l-.7.07Zm2,3.25a1,1,0,0,1-.61.25l-1,.1-.16-1.5,1-.1a.91.91,0,0,1,.67.14.77.77,0,0,1,.28.56A.66.66,0,0,1,39.92,59.77Z"/><path class="cls-1" d="M45.58,58l-1,.2a1.07,1.07,0,0,1-.08.79.92.92,0,0,1-.64.38.9.9,0,0,1-.83-.22,1.63,1.63,0,0,1-.46-.91l-.2-1a1.68,1.68,0,0,1,.07-1,.84.84,0,0,1,.65-.51,1,1,0,0,1,.78.1,1,1,0,0,1,.38.69l1-.2v0a1.61,1.61,0,0,0-.77-1.19,2.21,2.21,0,0,0-1.56-.17,1.92,1.92,0,0,0-1.33.89,2.21,2.21,0,0,0-.25,1.64l.2,1a2.17,2.17,0,0,0,.87,1.42,2,2,0,0,0,1.61.3,2.08,2.08,0,0,0,1.33-.75,1.64,1.64,0,0,0,.25-1.39Z"/><path class="cls-1" d="M46.38,54.12l.06,5.52,1-.36,0-1.18,1.6-.56.71.95,1-.36L47.4,53.76Zm1,3.12-.06-1.93h0l1.15,1.55Z"/></svg>