<svg id="Layer_1" data-name="Layer 1" xmlns="http://www.w3.org/2000/svg" viewBox="0 0 267.63 66"><defs><style>.cls-1{fill:#dc505e;}.cls-2{fill:#b22b37;}.cls-3{fill:#d81936;}.cls-4{fill:#af2c35;}.cls-5{fill:#762624;}.cls-6{fill:#007592;}.cls-7{fill:#0097b9;}.cls-8{fill:#2fb8e7;}.cls-9{fill:#005874;}.cls-10{fill:#80b13a;}.cls-11{fill:#a5c550;}.cls-12{fill:#5e8b28;}.cls-13{fill:#6e9123;}.cls-14{fill:#3f7937;}</style></defs><title>Payment Gateway</title><path d="M21.43,47.43a6.07,6.07,0,0,1-2.7,5.35Q16,54.61,10.86,54.61H8.12v5.73a10.67,10.67,0,0,0,.16,2A2.05,2.05,0,0,0,9,63.52a2.79,2.79,0,0,0,1.42.55,17.25,17.25,0,0,0,2.42.13v1.3H0V64.2A8.6,8.6,0,0,0,1.74,64a2,2,0,0,0,1-.55,2.11,2.11,0,0,0,.48-1.11,10.3,10.3,0,0,0,.13-1.85v-15a11.52,11.52,0,0,0-.11-1.84,2.35,2.35,0,0,0-.43-1.1A1.66,1.66,0,0,0,1.92,42a11.35,11.35,0,0,0-1.57-.21v-1.3H11.51q4.89,0,7.41,1.76A5.94,5.94,0,0,1,21.43,47.43ZM8.12,52.66h2.1a6.85,6.85,0,0,0,4.57-1.26,5,5,0,0,0,1.45-4A5.33,5.33,0,0,0,15,43.63a5,5,0,0,0-3.84-1.34H8.7a.51.51,0,0,0-.58.56Z"/><path d="M37.74,62.48a9.32,9.32,0,0,1-7.31,3.35,10,10,0,0,1-3.63-.63,7.9,7.9,0,0,1-4.59-4.54,9.34,9.34,0,0,1-.65-3.54,9.74,9.74,0,0,1,.68-3.69,8.45,8.45,0,0,1,1.92-2.9,8.88,8.88,0,0,1,2.93-1.9A10,10,0,0,1,30.81,48a7.33,7.33,0,0,1,5.32,1.85A6.93,6.93,0,0,1,38,55c0,.35-.05.56-.16.64a2.18,2.18,0,0,1-.9.11H26.59a2.94,2.94,0,0,0-.13,1.08,8.29,8.29,0,0,0,1.37,5,4.38,4.38,0,0,0,3.72,1.86,6.44,6.44,0,0,0,2.7-.62,10.34,10.34,0,0,0,2.59-1.76Zm-6.25-8.55a6.11,6.11,0,0,0,1.66-.14c.25-.1.37-.33.37-.7a3.36,3.36,0,0,0-.81-2.34,2.57,2.57,0,0,0-2-.91A3.28,3.28,0,0,0,28.22,51a5.63,5.63,0,0,0-1.4,2.94Z"/><path d="M46.7,60.47a14.5,14.5,0,0,0,.11,2,2.14,2.14,0,0,0,.47,1.13,1.76,1.76,0,0,0,1,.5,11,11,0,0,0,1.81.11v1.3H39.35V64.2A9.87,9.87,0,0,0,40.9,64a1.42,1.42,0,0,0,.87-.52,2.27,2.27,0,0,0,.37-1.12c0-.49.08-1.15.08-2v-4c0-1.34,0-2.41-.1-3.21a5.36,5.36,0,0,0-.41-1.86,1.67,1.67,0,0,0-.92-.86,4.84,4.84,0,0,0-1.57-.21V49.15L45.67,48l.52,3.74h.12A7.35,7.35,0,0,1,48.6,49a5.13,5.13,0,0,1,3-1,3.12,3.12,0,0,1,2,.62,1.92,1.92,0,0,1,.77,1.56,2.66,2.66,0,0,1-.59,1.75,2,2,0,0,1-1.63.72,1.92,1.92,0,0,1-.87-.2,3.78,3.78,0,0,1-.7-.44c-.2-.16-.4-.31-.61-.45a1.08,1.08,0,0,0-.63-.21,1.51,1.51,0,0,0-1.16.81,7.34,7.34,0,0,0-.9,2.18,18.58,18.58,0,0,0-.42,2.19,18.14,18.14,0,0,0-.16,2.43Z"/><path d="M62,60.14c0,.91,0,1.63.06,2.15a2.26,2.26,0,0,0,.36,1.18,1.39,1.39,0,0,0,.83.54,9.13,9.13,0,0,0,1.52.19v1.3H54.53V64.2A9.87,9.87,0,0,0,56.08,64a1.42,1.42,0,0,0,.87-.52,2.49,2.49,0,0,0,.39-1.12,17,17,0,0,0,.09-2v-4c0-1.24,0-2.26,0-3.09a9.65,9.65,0,0,0-.18-1.69,3,3,0,0,0-.24-.67,1.09,1.09,0,0,0-.45-.39,2.61,2.61,0,0,0-.79-.19c-.33,0-.75-.05-1.26-.05V49.18L60.69,48l.39,2.83h.19A8.72,8.72,0,0,1,64,48.6,7.4,7.4,0,0,1,67.17,48a7.3,7.3,0,0,1,3.51.75,5,5,0,0,1,2.1,2.14h.12a8.27,8.27,0,0,1,2.78-2.13A8,8,0,0,1,79.12,48a10.32,10.32,0,0,1,3.37.49,5,5,0,0,1,2.24,1.4,4.57,4.57,0,0,1,1,1.95A13.82,13.82,0,0,1,86,55.13v5c0,.89,0,1.59.08,2.11a2.62,2.62,0,0,0,.37,1.21,1.35,1.35,0,0,0,.84.55,9,9,0,0,0,1.51.19v1.3H78.61V64.2A7.94,7.94,0,0,0,80.14,64a1.53,1.53,0,0,0,.87-.56,2.35,2.35,0,0,0,.39-1.12,19.4,19.4,0,0,0,.08-2V56.14a17.76,17.76,0,0,0-.2-2.86,5.26,5.26,0,0,0-.61-1.88,2.44,2.44,0,0,0-1.11-1,4.25,4.25,0,0,0-1.69-.31,3,3,0,0,0-1.86.56,4.34,4.34,0,0,0-1.2,1.43,7.77,7.77,0,0,0-.84,3.8v4.29c0,.89,0,1.59.06,2.11a2.51,2.51,0,0,0,.36,1.21,1.37,1.37,0,0,0,.85.55,9.71,9.71,0,0,0,1.56.19v1.3H66.59V64.2A9.57,9.57,0,0,0,68.12,64a1.54,1.54,0,0,0,.87-.52,2.27,2.27,0,0,0,.39-1.12c.05-.49.08-1.15.08-2V56.14a17.76,17.76,0,0,0-.2-2.86,5.24,5.24,0,0,0-.63-1.88,2.51,2.51,0,0,0-1.14-1,4.53,4.53,0,0,0-1.77-.31,2.89,2.89,0,0,0-1.76.52A4.08,4.08,0,0,0,62.82,52a7,7,0,0,0-.65,1.79A9.47,9.47,0,0,0,62,55.85Z"/><path d="M99.56,54.52V53.15a4.56,4.56,0,0,0-.66-2.75,2.44,2.44,0,0,0-2.05-.86,1.87,1.87,0,0,0-1.42.51,4.77,4.77,0,0,0-.9,1.67A2.92,2.92,0,0,1,93.71,53a2.23,2.23,0,0,1-1.47.45,1.72,1.72,0,0,1-1.38-.55,2.26,2.26,0,0,1-.49-1.56,2.77,2.77,0,0,1,1.69-2.47A11.13,11.13,0,0,1,97.17,48q3.61,0,5.16,1.32c1,.87,1.55,2.34,1.55,4.4v7.12c0,1.84.36,2.76,1.09,2.76a1.74,1.74,0,0,0,1.13-.42l.48.94a3,3,0,0,1-1.4,1.29,4.81,4.81,0,0,1-2.14.47,2.8,2.8,0,0,1-2.26-.91,3.88,3.88,0,0,1-.77-2.57h-.16a6.34,6.34,0,0,1-5.8,3.45,4.56,4.56,0,0,1-3.26-1.16,3.92,3.92,0,0,1-1.22-3A3.79,3.79,0,0,1,90.82,59,13.23,13.23,0,0,1,95,56.5Zm0,1.72a21.39,21.39,0,0,0-4.08,2.29,2.91,2.91,0,0,0-1.37,2.2,2.08,2.08,0,0,0,.52,1.49,1.67,1.67,0,0,0,1.29.55,3.89,3.89,0,0,0,1.45-.27,4,4,0,0,0,1.16-.73,3.42,3.42,0,0,0,1-2.44Z"/><path d="M107,50.06V48.6a8.58,8.58,0,0,0,3.24-1.67,7.24,7.24,0,0,0,2-2.59h1.64v3.93h3.71v1.79H113.8V60a6.69,6.69,0,0,0,.44,2.86,1.51,1.51,0,0,0,1.46.85,2.07,2.07,0,0,0,1.91-1.17l.67.94q-.9,2.31-4.25,2.31a5.28,5.28,0,0,1-3.47-1,3.63,3.63,0,0,1-1.24-2.93V50.06Z"/><path d="M128.76,54.52V53.15a4.56,4.56,0,0,0-.66-2.75,2.44,2.44,0,0,0-2-.86,1.87,1.87,0,0,0-1.42.51,4.77,4.77,0,0,0-.9,1.67,2.92,2.92,0,0,1-.82,1.27,2.23,2.23,0,0,1-1.47.45,1.76,1.76,0,0,1-1.39-.55,2.31,2.31,0,0,1-.48-1.56,2.77,2.77,0,0,1,1.69-2.47,11.11,11.11,0,0,1,5.11-.91q3.62,0,5.16,1.32c1,.87,1.55,2.34,1.55,4.4v7.12c0,1.84.36,2.76,1.09,2.76a1.74,1.74,0,0,0,1.13-.42l.48.94a3.09,3.09,0,0,1-1.4,1.29,4.81,4.81,0,0,1-2.14.47,2.8,2.8,0,0,1-2.26-.91,3.88,3.88,0,0,1-.77-2.57h-.16a6.34,6.34,0,0,1-5.8,3.45A4.56,4.56,0,0,1,120,64.64a3.92,3.92,0,0,1-1.22-3A3.75,3.75,0,0,1,120,59a13.23,13.23,0,0,1,4.19-2.45Zm0,1.72a21.39,21.39,0,0,0-4.08,2.29,2.91,2.91,0,0,0-1.37,2.2,2.08,2.08,0,0,0,.52,1.49,1.67,1.67,0,0,0,1.29.55,3.93,3.93,0,0,0,1.45-.27,4,4,0,0,0,1.16-.73,3.42,3.42,0,0,0,1-2.44Z"/><path d="M136.59,65.5V64.27a10.9,10.9,0,0,0,2-.2,2.21,2.21,0,0,0,1.16-.55,2.09,2.09,0,0,0,.55-1.1,9.41,9.41,0,0,0,.15-1.86V45.41a11.21,11.21,0,0,0-.12-1.83,2.17,2.17,0,0,0-.45-1.11,1.72,1.72,0,0,0-1-.55,10.3,10.3,0,0,0-1.68-.21V40.47h9.64A12.45,12.45,0,0,1,153.64,42a5,5,0,0,1,2.42,4.39,4.81,4.81,0,0,1-1.34,3.51,10,10,0,0,1-4.24,2.25v.13c.67.06,1.25.14,1.74.22a11.25,11.25,0,0,1,1.32.31,6.58,6.58,0,0,1,1.08.44,11.07,11.07,0,0,1,1,.59A6.08,6.08,0,0,1,158.47,59a5.79,5.79,0,0,1-.95,3.21,6.49,6.49,0,0,1-2.66,2.32,6.82,6.82,0,0,1-1.12.47,8.46,8.46,0,0,1-1.36.29c-.51.08-1.11.13-1.79.17s-1.47,0-2.4,0Zm9.06-14c.66,0,1.22,0,1.67,0a10.68,10.68,0,0,0,1.16-.11,4,4,0,0,0,.86-.23,4.23,4.23,0,0,0,.75-.4,3.84,3.84,0,0,0,1.47-1.57,5.48,5.48,0,0,0,.44-2.37,4.76,4.76,0,0,0-1.25-3.69A5.64,5.64,0,0,0,146.87,42h-2.48a.48.48,0,0,0-.55.55v9Zm2.64,12.58q5.84,0,5.83-5a5.24,5.24,0,0,0-3-5.14q-.51-.23-1-.39A5.6,5.6,0,0,0,149,53.3c-.43-.06-.94-.09-1.53-.12s-1.32,0-2.18,0h-1.45V60.4a3.53,3.53,0,0,0,1,2.85A5.39,5.39,0,0,0,148.29,64.11Z"/><path d="M170.53,54.48V53.15c0-2.64-1.12-4-3.36-4a4.14,4.14,0,0,0-.93.1,1.56,1.56,0,0,0-.64.33,2,2,0,0,0-.47.65,6.31,6.31,0,0,0-.4,1,3.39,3.39,0,0,1-.7,1.25,1.37,1.37,0,0,1-1,.31,1.43,1.43,0,0,1-1.61-1.63,2.67,2.67,0,0,1,1.64-2.42,10.34,10.34,0,0,1,4.67-.86c2.15,0,3.68.39,4.58,1.15A4.93,4.93,0,0,1,173.69,53V60.3c0,2.47.48,3.71,1.45,3.71a3.58,3.58,0,0,0,.87-.11,1.23,1.23,0,0,0,.7-.61l.46.78a3,3,0,0,1-1.42,1.26,5,5,0,0,1-2.16.5,2.47,2.47,0,0,1-2.11-.91,4.11,4.11,0,0,1-.7-2.57h-.16a6.48,6.48,0,0,1-2.32,2.52,6,6,0,0,1-3.28.93,4.65,4.65,0,0,1-3.2-1,3.6,3.6,0,0,1-1.16-2.8,4,4,0,0,1,.28-1.49,4.2,4.2,0,0,1,.88-1.37,8.39,8.39,0,0,1,1.62-1.28,18.77,18.77,0,0,1,2.45-1.29Zm0,1.4a29,29,0,0,0-3.11,1.4,11,11,0,0,0-2,1.37A4.43,4.43,0,0,0,164.26,60a3.07,3.07,0,0,0-.34,1.4,2.33,2.33,0,0,0,.71,1.75,2.55,2.55,0,0,0,1.87.69,3,3,0,0,0,1.56-.43,4.18,4.18,0,0,0,1.27-1.15,5.68,5.68,0,0,0,.87-1.72,6.6,6.6,0,0,0,.33-2.1Z"/><path d="M183.29,60.4q0,1.34.06,2.1a2.58,2.58,0,0,0,.34,1.17,1.29,1.29,0,0,0,.81.53,8.27,8.27,0,0,0,1.46.2v1.1h-8.44V64.4a8.43,8.43,0,0,0,1.44-.2,1.4,1.4,0,0,0,.82-.52,2.33,2.33,0,0,0,.37-1.1c0-.48.08-1.13.08-1.95V56.3a31,31,0,0,0-.2-4.71,2.72,2.72,0,0,0-.24-.7,1,1,0,0,0-.43-.42,2.33,2.33,0,0,0-.74-.2c-.3,0-.69,0-1.16,0v-1L182.61,48l.39,3.22h.13A8.76,8.76,0,0,1,186,48.8a7.61,7.61,0,0,1,3.57-.85,7.18,7.18,0,0,1,2.71.49,4.23,4.23,0,0,1,1.87,1.33,4.65,4.65,0,0,1,.77,1.93,17.62,17.62,0,0,1,.23,3.27V60.4c0,.89,0,1.59.08,2.1a2.71,2.71,0,0,0,.34,1.17,1.19,1.19,0,0,0,.79.53,8,8,0,0,0,1.4.2v1.1h-8.35V64.4a6.36,6.36,0,0,0,1.44-.18,1.4,1.4,0,0,0,.8-.54,2.38,2.38,0,0,0,.36-1.12c.05-.48.08-1.13.08-1.93V56.34a22.43,22.43,0,0,0-.19-3.12,6.13,6.13,0,0,0-.63-2,2.58,2.58,0,0,0-1.15-1.12,3.86,3.86,0,0,0-1.71-.34,4.84,4.84,0,0,0-2.65.76,5.57,5.57,0,0,0-2.16,2.71,3.15,3.15,0,0,0-.18.69c0,.26-.08.55-.1.89s0,.76,0,1.29Z"/><path d="M208.94,64.37a6.92,6.92,0,0,0,1.47-.1c.27-.07.4-.15.4-.26a2.74,2.74,0,0,0-.51-.94c-.32-.46-.74-1-1.26-1.63l-3.42-4.16-1.19,1.14v1.92a15.49,15.49,0,0,0,.11,2,2.9,2.9,0,0,0,.42,1.2,1.6,1.6,0,0,0,.91.6,6.75,6.75,0,0,0,1.56.2V65.5h-9.15V64.37a6.83,6.83,0,0,0,1.56-.2,1.71,1.71,0,0,0,.93-.58,2.38,2.38,0,0,0,.47-1.14,10.71,10.71,0,0,0,.13-1.89V46.94c0-1.64,0-2.89-.05-3.74a3.66,3.66,0,0,0-.34-1.72,1.26,1.26,0,0,0-1-.54,17.06,17.06,0,0,0-1.81-.08v-1.1l6.22-1.24V56.37l3-3,2.16-2.16c.47-.47.71-.82.71-1.06s-.23-.43-.68-.57a6.82,6.82,0,0,0-1.93-.21V48.27h8.38v1.14a6.69,6.69,0,0,0-1.07.07,2.79,2.79,0,0,0-.85.26,5.52,5.52,0,0,0-.85.53c-.31.23-.65.52-1,.87l-4.64,4.16L214,62.58a8.39,8.39,0,0,0,.83.89,3.24,3.24,0,0,0,.74.54,2.91,2.91,0,0,0,.8.28,6.24,6.24,0,0,0,1,.08V65.5h-8.48Z"/><polygon class="cls-1" points="246.79 0.17 248.28 1.59 237.16 5.96 234.73 4.02 246.79 0.17"/><path class="cls-2" d="M237.16,6l.45,30.41s.6,0,.66-.33,10-34.45,10-34.45Z"/><polygon class="cls-3" points="237.16 5.96 234.73 4.02 233.24 5.96 237.37 36.37 237.61 36.37 237.16 5.96"/><polygon class="cls-4" points="233.24 5.96 224.78 1.59 225.44 0.48 234.73 4.02 233.24 5.96"/><path class="cls-5" d="M224.78,1.59s11.75,33.79,11.83,34.09a1.12,1.12,0,0,0,.76.69L233.24,6Z"/><polygon class="cls-3" points="234.73 4.02 246.79 0.17 225.44 0.48 234.73 4.02"/><polygon class="cls-6" points="225.44 15.8 219.41 23.68 235.71 53.71 236.27 52.96 225.44 15.8"/><polygon class="cls-7" points="219.41 23.68 216.59 22.33 216.59 24.82 235.71 53.71 219.41 23.68"/><polygon class="cls-8" points="216.59 22.33 223.23 14.64 225.44 15.8 219.41 23.68 216.59 22.33"/><polygon class="cls-6" points="216.59 24.82 208.69 23.38 208.96 21.94 216.59 22.33 216.59 24.82"/><polygon class="cls-9" points="208.69 23.38 234.68 53.71 235.71 53.71 216.59 24.82 208.69 23.38"/><polygon class="cls-7" points="223.23 14.64 208.96 21.94 216.59 22.33 223.23 14.64"/><polygon class="cls-10" points="255.3 21.94 256.13 24.82 238.49 65.74 252.76 23.16 255.3 21.94"/><polygon class="cls-11" points="256.13 24.82 267.35 23.99 267.35 21.61 255.3 21.94 256.13 24.82"/><polygon class="cls-12" points="252.76 23.16 248.9 14.85 250.48 13.94 255.3 21.94 252.76 23.16"/><polygon class="cls-10" points="267.35 21.61 250.48 13.94 255.3 21.94 267.35 21.61"/><polygon class="cls-13" points="267.35 23.99 239.74 65.5 238.49 65.74 256.13 24.82 267.35 23.99"/><polygon class="cls-14" points="252.76 23.16 248.9 14.85 237.87 64.7 238.49 65.74 252.76 23.16"/></svg>